# xmcd
#
# Track frame offsets:
#	150
#	20475
#	37441
#	53799
#	67280
#	79253
#	98295
#	110984
#	120323
#	134749
#	146189
#	160476
#	175774
#	187548
#	201457
#	216474
#
# Disc length: 3027 seconds
#
# Revision: 1
# Processed by: cddbd v1.5.2PL0 Copyright (c) Steve Scherf et al.
# Submitted via: audiograbber 1.83.01
#
DISCID=fa0bd110
DTITLE=Django Reinhardt - Sweet Chorus [CD 6)
DYEAR=1900
DGENRE=Swing
TTITLE0=Daphne
TTITLE1=Tears
TTITLE2=Dinah
TTITLE3=How high the Moon
TTITLE4=Danse Nuptiale
TTITLE5=Lover Man
TTITLE6=Billet doux
TTITLE7=Vendredi 13
TTITLE8=Swing in the Springtime
TTITLE9=Louise
TTITLE10=I love you for sentimental Reasons
TTITLE11=Songe d'autonomne
TTITLE12=Swing dynamique
TTITLE13=Sweet Chorus
TTITLE14=Just one of those Things
TTITLE15=Ferrie
EXTD=
EXTT0=
EXTT1=
EXTT2=
EXTT3=
EXTT4=
EXTT5=
EXTT6=
EXTT7=
EXTT8=
EXTT9=
EXTT10=
EXTT11=
EXTT12=
EXTT13=
EXTT14=
EXTT15=
PLAYORDER=
